<?xml version="1.0" encoding="utf-8"?>
<svg xmlns="http://www.w3.org/2000/svg" viewBox="0 0 999 525">
  <style>
    <!-- CycleStreets logo variants -->

    <!-- Hand-drawn text colouring -->
    path	{fill:green;fill-rule:evenodd;}
    path.hand	{fill:white;}
    text.roadfont {visibility:hidden;}

    <!-- Wireframe
    path {stroke:black;fill:none;}
    -->

    <!-- Font
    path.roadfont {visibility:hidden;}
    text.roadfont {font-size:72pt;font-family:sans-serif;letter-spacing:0.13em;font-weight:bold;}
    -->

    <!-- Multi colour
    path.street	{fill:#CF4E4E;}
    path.tyre	{fill:black;}
    path.frame	{fill:red;}
    path.basket	{fill:brown;}
    path.rider	{fill:#BF8F00;}
    path.scarf	{fill:blue;}
    -->
  </style>
  <path class="street" d="M20,312c123,49 89,167 13,190 606,86 594,-230 930,-213 -266,-123 -334,178 -943,23Z"/>
  <path id="midway" class="roadfont" d="M140,450c380,36 400,-64 650,-150"/>
  <text class="roadfont">
    <textPath xmlns:xlink="http://www.w3.org/1999/xlink" xlink:href="#midway">c<tspan font-size="69pt">y</tspan><tspan font-size="66pt">c</tspan><tspan font-size="61pt">l</tspan><tspan font-size="58pt">e</tspan><tspan font-size="55pt">s</tspan><tspan font-size="52pt">t</tspan><tspan font-size="49pt">r</tspan><tspan font-size="46pt">e</tspan><tspan font-size="43pt">e</tspan><tspan font-size="40pt">t</tspan><tspan font-size="37pt">s</tspan><tspan font-size="34pt">.</tspan><tspan font-size="32pt">n</tspan><tspan font-size="28pt">e</tspan><tspan font-size="24pt">t</tspan></textPath>
  </text>
  <path class="hand" d="M184,444c-6,13,-17,25,-35,23c-23,-2,-35,-23,-32,-41c2,-21,21,-40,39,-37c19,3,17,6,23,12c4,4,7,13,9,19c0,0,-16,-1,-16,-1c-1,-8,-5,-12,-17,-13c-12,-1,-19,8,-20,18c-1,10,2,17,11,22c7,3,18,1,23,-7c0,0,15,5,15,5zm27,5c0,0,-12,-50,-12,-50c0,0,19,3,19,3c0,0,3,34,3,34c0,0,20,-31,20,-31c0,0,16,0,16,0c0,0,-47,81,-47,81c0,0,-22,-6,-22,-6c0,0,23,-31,23,-31zm106,-5c-7,19,-25,25,-38,20c-12,-6,-20,-8,-18,-28c1,-18,18,-30,32,-30c8,0,15,2,21,7c4,4,3,11,5,16c0,0,-13,0,-13,0c-1,-9,-8,-8,-16,-9c-8,0,-15,9,-15,16c0,8,5,12,11,14c9,2,11,-2,14,-7c0,0,10,1,17,1zm16,-58c0,0,15,1,15,1c0,0,-3,76,-3,76c0,0,-17,0,-17,0c0,0,5,-77,5,-77zm35,48c2,6,4,14,13,13c10,-1,15,-2,16,-9c0,0,13,0,13,0c-1,3,1,-1,-3,6c-3,7,-12,13,-26,13c-14,-1,-26,-7,-26,-26c1,-18,12,-27,29,-28c16,-1,21,4,23,18c0,2,0,6,0,8c0,0,-39,5,-39,5zm29,-15c-3,-6,-7,-8,-15,-7c-8,1,-13,4,-14,11c0,0,29,-4,29,-4zm30,16c2,4,6,5,10,4c5,-2,7,-5,5,-9c-1,-4,-2,-3,-3,-4c-2,0,-7,0,-11,-1c-4,-1,-13,-3,-14,-10c-1,-9,0,-14,8,-18c8,-4,14,-3,19,0c3,2,6,6,7,10c0,0,-9,2,-9,2c-1,-2,-3,-5,-7,-5c-3,0,-6,4,-6,7c0,3,2,4,3,5c2,0,3,0,8,0c5,0,8,1,10,3c4,2,6,3,7,8c1,5,-3,15,-11,19c-8,5,-17,3,-21,0c-4,-2,-6,-5,-7,-10c0,0,12,-1,12,-1zm35,-35c0,0,-9,3,-9,3c0,0,-4,-11,-4,-11c0,0,9,-2,9,-2c0,0,-5,-16,-5,-16c0,0,11,-2,11,-2c0,0,4,16,4,16c0,0,9,-3,9,-3c0,0,2,9,2,9c0,0,-9,3,-9,3c0,0,13,40,13,40c0,0,-10,3,-10,3c0,0,-11,-40,-11,-40zm22,-16c0,0,8,-2,8,-2c0,0,1,7,1,7c2,-4,4,-7,8,-8c0,0,5,-3,5,-3c0,0,1,12,1,12c-7,2,-8,4,-7,13c1,8,8,26,8,26c0,0,-11,4,-11,4c0,0,-13,-49,-13,-49zm42,15c4,7,13,6,16,6c4,-1,9,-3,9,-8c0,0,7,-4,7,-4c0,3,1,7,-1,11c-2,4,-8,8,-16,10c-7,1,-18,-1,-23,-9c-5,-8,-6,-24,4,-31c11,-7,20,-3,25,-2c4,2,7,5,8,14c-5,4,-20,9,-29,13zm21,-17c-3,-5,-11,-5,-16,-3c-5,2,-7,7,-8,13c0,0,24,-10,24,-10zm29,1c3,4,9,5,12,5c4,0,11,-3,11,-10c0,0,10,-4,7,-3c0,6,2,2,1,8c-2,7,-8,10,-14,13c-7,2,-23,2,-27,-11c-4,-14,-2,-23,7,-28c9,-5,15,-3,19,-1c5,1,10,11,11,13c0,0,-27,14,-27,14zm18,-17c-2,-5,-10,-6,-17,-2c-6,5,-4,7,-3,12c0,0,20,-10,20,-10zm16,-14c0,0,-8,5,-8,5c0,0,-5,-6,-5,-6c0,0,8,-6,8,-6c0,0,-8,-10,-8,-10c0,0,8,-5,8,-5c0,0,6,11,6,11c0,0,9,-5,9,-5c0,0,5,8,5,8c0,0,-7,5,-7,5c0,0,14,28,14,28c0,0,-9,4,-9,4c0,0,-13,-29,-13,-29zm33,8c2,3,6,1,9,-1c2,-1,5,-5,4,-7c-3,-3,-5,-2,-8,-1c-3,1,-3,1,-7,2c-9,1,-9,-6,-9,-8c-1,-3,-1,-10,2,-13c3,-3,9,-5,12,-5c4,0,8,2,9,5c0,0,-5,4,-5,4c-3,-3,-7,-4,-11,-1c-3,4,-1,6,0,8c0,1,3,2,4,2c1,1,3,-1,7,-2c4,0,7,0,9,1c3,1,4,2,4,6c1,3,2,3,0,8c-3,5,-7,10,-15,10c-8,0,-8,-2,-9,-6c0,0,4,-2,4,-2zm31,-13c2,7,11,2,8,-3c0,-6,-12,-4,-8,3z"/>
  <path class="hand" d="M679,314c0,0,7,-2,7,-2c0,0,3,6,3,6c0,-7,4,-11,9,-13c5,-3,10,-2,13,0c3,2,5,7,8,11c3,4,7,10,7,10c0,0,-8,5,-8,5c0,0,-5,-9,-7,-12c-1,-4,-4,-6,-5,-7c-1,0,-5,-1,-7,0c-2,2,-3,5,-4,8c0,2,1,5,3,9c0,0,7,10,7,10c0,0,-9,6,-9,6c0,0,-17,-31,-17,-31zm55,-4c3,3,10,3,15,2c5,-2,8,-1,12,-6c5,1,2,1,6,2c0,2,-7,7,-11,8c-4,1,-10,3,-16,3c-6,0,-11,-1,-15,-11c-3,-10,4,-19,12,-22c8,-3,14,-3,20,0c5,2,8,8,8,9c0,0,-31,15,-31,15zm22,-16c-3,-6,-9,-6,-17,-2c-7,3,-8,6,-7,13c0,0,17,-7,24,-11zm26,-5c0,0,-10,4,-10,4c0,0,-3,-8,-3,-8c0,0,12,-3,12,-3c0,0,-4,-10,-4,-10c0,0,9,-2,9,-2c0,0,2,8,2,8c0,0,14,-5,14,-5c0,0,1,7,1,7c0,0,-12,6,-12,6c-1,0,4,15,8,14c0,0,-6,5,-11,3c-3,0,-6,-14,-6,-14z"/>
  <path class="rear tyre" d="M372,204c-60,-23 -113,-16 -149,-3 -33,20 -62,48 -33,111 26,48 115,56 169,40 22,-7 48,-21 61,-43 14,-25 5,-79 -48,-105ZM325,208c-6,-2 -66,-10 -97,20 -20,18 -26,49 -10,74 22,44 98,42 136,32 30,-9 54,-32 57,-56 1,-14 -14,-61 -86,-70Z"/>
  <path class="front tyre" d="M484,293c2,21,20,43,50,44c29,0,61,-16,63,-52c2,-27,-19,-47,-35,-55c-61,-20,-83,27,-78,63zm31,-54c-34,22,-25,82,19,86c36,3,65,-31,46,-64c-9,-17,-36,-35,-65,-22z"/>
  <path class="frame" d="M299,180c-16,-2 -47,1 -57,3 -6,-4 -17,-14 -16,-20 9,-2 138,24 149,26 -1,1 -6,7 -6,7 0,0 -34,-13 -70,-16ZM391,206c28,14 41,58 47,58 6,-5 -39,-69 -39,-69 -7,10 -4,5 -8,11ZM252,196c10,9 54,51 64,59 9,-4 45,-44 50,-50 -28,-12 -82,-16 -114,-9ZM397,170c6,10 54,85 54,96 7,-7 48,-52 60,-60 0,-4 -1,-5 -1,-11 -10,1 -26,-7 -25,-14 -6,5 1,-16 3,-7 16,7 19,9 21,1 0,0 12,-1 12,-1 0,0 7,28 9,45 21,-1 31,3 38,8 7,7 7,7 -4,8 0,0 -19,-9 -32,-7 -1,14 15,42 17,54 -2,10 -12,-1 -15,-6 -7,-14 -12,-31 -15,-44 -40,16 -35,60 -34,70 -11,3 -11,-47 11,-66 -12,8 -29,33 -35,38 2,5 3,18 -8,18 0,5 -1,16 -1,16 0,0 7,1 7,1 0,5 0,2 -1,7 -5,0 -10,-1 -18,-1 0,0 0,-3 0,-8 3,0 11,1 8,1 1,-6 0,-9 0,-15 -3,0 -6,1 -8,0 -15,-3 -7,-6 -22,-10 0,0 -55,-3 -55,-3 -13,0 -41,6 -52,0 -9,-5 -8,-13 -13,-21 -5,-8 -23,-24 -31,-31 -4,-4 -23,-27 -29,-28 -12,5 -62,17 -56,81 -2,2 -6,1 -9,4 -9,-32 -4,-56 22,-78 10,-9 15,-13 28,-17 -6,-9 -22,-23 -16,-35 7,-11 26,-7 35,-4 0,0 127,25 136,26 2,-4 8,-10 6,-12 -2,-13 -12,-2 -13,-14 0,-13 32,-2 41,11 -5,5 -29,-6 -15,8ZM385,215c0,0 -39,46 -39,46 0,0 64,4 75,1 0,-15 -21,-40 -36,-47Z"/>
  <path class="basket" d="M530,210c1,-15 -1,-31 -2,-37 21,3 33,7 41,10 -4,17 -6,22 -13,31 -12,-2 -15,-4 -26,-4Z"/>
  <path class="rider" d="M392,171c-4,-7 -14,-8 -17,-11 -6,-7 -9,-15 -10,-24 3,-33 13,-75 46,-84 -8,-8 -7,-21 -7,-21 -2,-20 13,-26 30,-19 27,12 30,46 16,55 -4,2 -13,-1 -18,-1 16,29 2,50 21,72 0,0 35,27 37,36 0,2 0,3 -3,7 -6,5 -33,-22 -46,-34 -5,8 -4,12 -10,16 6,7 27,23 39,46 5,10 3,7 3,19 -9,19 -27,56 -31,68 11,13 25,7 24,13 -6,8 -29,3 -49,-7 17,-28 19,-67 39,-79 -34,-12 -60,-45 -64,-52Z"/>
  <path class="scarf" d="M245,27c29,13 28,34 -3,32 101,31 107,-22 164,-10 -42,-29 -62,21 -161,-22Z"/>
</svg>
