<svg width="200" height="300" xmlns="http://www.w3.org/2000/svg">
  <path fill="#9c94d1" d="m191.09 287.945-2.224 5.861h4.654zm8.847 11.5h-4.066l-1.24-2.986h-6.75l-1.127 2.986h-4.003l6.1-15.121h4.367zm-27.256-2.764h2.128c2.097 0 2.812-.556 2.812-1.874 0-1.112-.969-1.7-2.303-1.7h-2.637zm0-6.353h1.985c1.367 0 1.922-.842 1.922-1.636 0-.778-.555-1.588-1.922-1.588h-1.985zm2.78-5.988c3.573 0 5.003 2.096 5.003 3.78 0 1.255-.794 2.383-2.065 3.018 2.16.54 3.224 2.097 3.224 3.875 0 1.731-.92 4.432-5.352 4.432h-7.354V284.34zm-8.625 15.105h-11.53V284.34h3.763v12.341h7.767zm-22.11-11.5-2.223 5.861h4.67zm8.848 11.5h-4.066l-1.24-2.986h-6.75l-1.143 2.986h-3.97l6.082-15.121h4.368zm-30.432-1.954h6.814v1.954h-8.99v-15.121h2.176zm-7.656 1.954h2.16v-15.121h-2.16zm-11.5-6.401h4.702l-2.43-5.48zm9.816 6.4h-2.207l-2.017-4.462h-6.433l-1.906 4.463h-2.224l6.497-15.2h1.54zm-16.439 0h-2.176v-6.59h-8.465v6.59h-2.176V284.34h2.176v6.576h8.465v-6.576h2.176zm-27.223-1.953h3.446c4.924 0 6.052-3.748 6.052-5.607 0-3.033-1.922-5.607-6.147-5.607H70.14zm-2.176-13.167h5.876c5.576 0 8.038 4.003 8.038 7.56 0 3.876-3.034 7.56-8.021 7.56h-5.893zm-3.352 15.12h-2.175v-6.59h-8.466v6.59h-2.176V284.34h2.176v6.576h8.466v-6.576h2.175zm-16.041 0h-2.177v-11.768h-.049l-4.653 5.844h-.35l-4.653-5.844h-.05v11.769h-2.175V284.34h2.033l5.019 6.194 5.035-6.194h2.017zm-23.476-16.105h-1.223l-2.478-3.272h2.208zm-1.366 14.311c3.4 0 5.909-2.462 5.909-5.766 0-3.32-2.51-5.765-5.909-5.765-3.367 0-5.86 2.446-5.86 5.766 0 3.303 2.493 5.765 5.86 5.765m0-13.517c5.004 0 8.148 3.543 8.148 7.752 0 4.065-3.065 7.75-8.18 7.75-4.94 0-8.068-3.653-8.068-7.75 0-4.194 3.208-7.752 8.1-7.752m-10.244 3.558c-1.859-1.08-3.447-1.572-5.194-1.572-3.463 0-6.036 2.462-6.036 5.781 0 3.4 2.478 5.75 6.115 5.75 1.716 0 3.574-.604 5.274-1.715v2.382c-1.478.778-3.098 1.318-5.464 1.318-5.67 0-8.164-4.351-8.164-7.528 0-4.606 3.478-7.974 8.291-7.974 1.556 0 3.129.366 5.178 1.24zm0 0"/>
  <path fill="#283a99" d="M182.687 0 .191 80.687v14.644L185.118.001zm16.98 18.679L31.433 199.683l19.488-.031L199.667 19.664zM89.358 131.942l-45.981-54.75L.175 99.889v99.762H25.81zM31.29 62.818.175 25.763V76.16zM139.47 111.5l5.606-6.64 54.75 39.073V100.62L156.56 76.859l-47.046 57.83 61.5 64.978h28.811v-40.756zM7.592 6.703l16.63 11.88-2.065.684L6.353 6.877zM33.99 25.715l24.126 17.218-3.78 1.683-23.03-18.123zm4.542 33.99 48.73-20.902L16.614 0H.174v19.187zM25.397 0l72.904 34.07L177.684 0zm87.246 40.772 43.282 20.22 43.9-46.792V0h-9.609zm87.182 40.74v-57.83l-34.085 41.9zM80.4 65.074l5.067-2.78 35.578 25.397-5.083 5.337zm21.11-18.457L51.191 73.079l46.903 49.555 48.221-51.398zm44.742 153.05-45.521-54.193-44.092 54.193zm46.188 57.274c0-1.81-.35-3.224-1.049-4.24-.682-1.017-1.524-1.684-2.493-2.033a8.832 8.832 0 0 0-2.986-.524h-2.891v13.23h2.89c1.748 0 3.305-.413 4.591-1.239 1.287-.857 1.938-2.573 1.938-5.194m6.861.302c0 2.287-.397 4.13-1.239 5.528-.841 1.397-1.81 2.51-2.938 3.383-1.62 1.254-3.876 1.89-6.75 1.89h-12.12v-22.411h9.324c1.414 0 2.59.079 3.606.222 1 .159 1.89.35 2.684.604a9.253 9.253 0 0 1 2.033.905c.572.318 1.08.683 1.509 1.065a9.845 9.845 0 0 1 2.001 2.207c.588.842 1.032 1.843 1.382 2.955.333 1.111.508 2.334.508 3.653m-28.7 10.8h-5.973l-11.658-12.5v12.5h-6.686v-22.427h5.987l11.627 12.452v-12.452h6.702zm-37.58-8.434-3.304-8.196-3.32 8.196zm10.292 8.434h-6.925l-1.826-4.511h-9.737l-1.874 4.51h-6.909l9.927-22.41h7.465zm-28.097 0H98.189v-22.427h6.75v17.026h10.277zm-20.982-16.947h-8.227v16.947h-6.719v-16.947h-8.211v-5.464h23.157zm-30.702 5.718c0-.842-.128-1.62-.365-2.304a5.047 5.047 0 0 0-1.127-1.81 5.272 5.272 0 0 0-1.843-1.192c-.715-.27-1.54-.412-2.494-.412-1.81 0-3.224.524-4.256 1.572-1.017 1.064-1.54 2.43-1.54 4.146 0 1.7.523 3.08 1.54 4.145 1.064 1.048 2.462 1.572 4.256 1.572 1.24 0 2.288-.237 3.161-.73a4.952 4.952 0 0 0 1.985-2.018c.445-.873.684-1.858.684-2.97m6.893 0c0 2.081-.477 4.019-1.462 5.766-.953 1.747-2.382 3.145-4.304 4.177-1.89 1.048-4.225 1.557-6.957 1.557-2.779 0-5.114-.54-7.02-1.604-1.938-1.08-3.351-2.51-4.272-4.257a11.695 11.695 0 0 1-1.414-5.638c0-2.018.46-3.908 1.398-5.655.921-1.747 2.35-3.16 4.272-4.225 1.922-1.08 4.257-1.62 7.036-1.62 2.081 0 3.924.302 5.544.921 1.604.604 2.954 1.446 4.002 2.51a10.581 10.581 0 0 1 2.367 3.653 12.45 12.45 0 0 1 .81 4.416m-28.05 9.53c-.92.492-1.874.889-2.843 1.175-.969.286-1.954.476-2.938.603-.985.144-2.018.19-3.066.19-1.953 0-3.7-.254-5.241-.795-1.557-.556-2.891-1.334-4.05-2.382a10.443 10.443 0 0 1-2.542-3.685c-.571-1.43-.842-2.97-.842-4.654 0-1.922.318-3.605.985-5.067.683-1.429 1.62-2.636 2.827-3.605a11.933 11.933 0 0 1 4.114-2.128c1.525-.46 3.145-.683 4.844-.683 2.558 0 5.433.572 8.657 1.7v5.955c-1.096-.667-2.192-1.255-3.288-1.715-1.08-.46-2.35-.683-3.828-.683-1.302 0-2.51.253-3.637.762a6.572 6.572 0 0 0-2.748 2.224c-.699.953-1.048 2.065-1.048 3.351 0 1.128.317 2.176.921 3.113.604.953 1.43 1.7 2.51 2.256 1.08.556 2.287.826 3.62.826 1.097 0 2.13-.128 3.114-.398.953-.271 1.763-.556 2.43-.873a25.132 25.132 0 0 0 2.049-1.16zm-24.682-4.83c0 1.414-.366 2.621-1.08 3.638-.715 1.032-1.716 1.81-2.986 2.35-1.287.54-2.764.827-4.432.827-.46 0-1.032-.034-1.7-.11-.666-.034-1.572-.208-2.668-.492-1.127-.253-2.303-.668-3.494-1.192v-5.48a25 25 0 0 0 3.335 1.748 9.268 9.268 0 0 0 3.51.667c1.176 0 1.907-.174 2.256-.54.334-.397.492-.763.492-1.096 0-.588-.286-1.096-.873-1.525-.572-.397-1.43-.842-2.541-1.27a23.384 23.384 0 0 1-3.225-1.684 8.043 8.043 0 0 1-2.27-2.303c-.588-.921-.874-2.001-.874-3.256 0-1.207.286-2.287.89-3.272.587-.969 1.476-1.747 2.715-2.335 1.207-.588 2.7-.874 4.447-.874 1.255 0 2.415.129 3.479.365 1.064.238 1.938.509 2.62.81.7.318 1.16.54 1.43.715v5.274a17.34 17.34 0 0 0-3.065-1.763 8.46 8.46 0 0 0-3.606-.779c-.858 0-1.477.159-1.843.477-.38.333-.571.715-.571 1.19 0 .446.189.843.571 1.16.366.318 1.049.715 2.034 1.176 1.715.81 3.097 1.54 4.145 2.192 1.017.651 1.842 1.366 2.414 2.223.604.842.89 1.906.89 3.161m161.721-48.175H200v3.13h-8.577v21.584h-3.558v-21.585h-8.45zm-11.8 2.986h-1.065v7.894h1.366c1.763 0 3.002-.158 3.653-.476a3.414 3.414 0 0 0 1.557-1.398c.35-.635.556-1.334.556-2.144 0-.778-.223-1.493-.636-2.128a3.272 3.272 0 0 0-1.73-1.35c-.747-.254-1.97-.398-3.702-.398m-4.59 21.728v-24.698h6.179c2.51 0 4.495.62 5.956 1.858 1.461 1.255 2.208 2.923 2.208 5.035 0 1.446-.366 2.684-1.096 3.749-.73 1.048-1.747 1.826-3.114 2.366.81.509 1.557 1.208 2.335 2.097.747.905 1.811 2.446 3.193 4.67a40.82 40.82 0 0 0 2.049 3.16l1.302 1.763h-4.193l-1.096-1.62a4.202 4.202 0 0 0-.189-.302l-.699-.969-1.096-1.794-1.175-1.922c-.73-1.033-1.398-1.827-2.001-2.414-.604-.604-1.16-1.017-1.652-1.303-.477-.268-1.287-.397-2.446-.397h-.938v10.721zm-17.598-21.728c-2.828 0-5.162.906-6.957 2.685-1.827 1.763-2.732 4.034-2.732 6.782 0 2.684.905 4.908 2.732 6.686 1.81 1.78 4.098 2.669 6.845 2.669 2.748 0 5.051-.906 6.894-2.716 1.842-1.827 2.763-4.082 2.763-6.766 0-2.637-.92-4.845-2.763-6.64-1.843-1.794-4.098-2.7-6.782-2.7m-.174-3.32c3.828 0 6.989 1.208 9.53 3.638 2.541 2.414 3.812 5.464 3.812 9.117 0 3.653-1.287 6.671-3.86 9.053-2.541 2.383-5.781 3.59-9.673 3.59-3.716 0-6.814-1.207-9.291-3.59-2.494-2.382-3.733-5.384-3.733-9.005 0-3.701 1.255-6.75 3.748-9.165 2.51-2.43 5.655-3.637 9.467-3.637m-23.54 3.462h-3.637v7.751h3.844c1.43 0 2.541-.35 3.303-1.032.763-.667 1.16-1.652 1.16-2.907 0-2.557-1.557-3.812-4.67-3.812m-7.195 21.585v-24.714h7.83c2.351 0 4.225.652 5.607 1.922 1.43 1.255 2.128 2.954 2.128 5.115 0 1.43-.365 2.7-1.08 3.796-.73 1.111-1.715 1.906-2.954 2.414-1.239.492-3.034.746-5.368.746h-2.605v10.721zm-10.244-10.34-2.7-1.635c-1.684-1.017-2.875-2.033-3.59-3.034-.73-1.017-1.08-2.16-1.08-3.463 0-1.953.683-3.541 2.033-4.765 1.35-1.223 3.113-1.826 5.273-1.826a9.99 9.99 0 0 1 5.686 1.731v4.034c-1.779-1.715-3.7-2.572-5.765-2.572-1.16 0-2.113.286-2.86.81-.73.54-1.111 1.222-1.111 2.064 0 .73.287 1.43.826 2.097.556.635 1.445 1.334 2.652 2.033l2.716 1.604c3.018 1.81 4.543 4.098 4.543 6.893 0 2.001-.683 3.606-2.002 4.86-1.318 1.24-3.05 1.859-5.162 1.859-2.461 0-4.685-.763-6.67-2.287v-4.48c1.89 2.43 4.113 3.638 6.607 3.638 1.128 0 2.033-.302 2.78-.921.73-.635 1.095-1.414 1.095-2.35 0-1.494-1.08-2.94-3.271-4.29m-14.74-14.374h3.32v24.714h-3.002l-16.503-19.028v19.028h-3.335v-24.714h2.874l16.646 19.203zm-29.813 14.28-4.002-8.975-3.7 8.974zm-5.273-14.407h2.526l11.054 24.841h-3.621l-3.272-7.322h-10.53l-3.066 7.322h-3.637zm-25.794 3.113h-1.064v7.894h1.334c1.795 0 3.002-.158 3.67-.476a3.414 3.414 0 0 0 1.556-1.398c.349-.635.54-1.334.54-2.144 0-.778-.208-1.493-.604-2.128a3.333 3.333 0 0 0-1.731-1.35c-.762-.254-1.986-.398-3.701-.398m-4.606 21.728v-24.698h6.179c2.493 0 4.479.62 5.94 1.858 1.493 1.255 2.207 2.923 2.207 5.035 0 1.446-.349 2.684-1.08 3.749-.714 1.048-1.763 1.826-3.113 2.366.779.509 1.573 1.208 2.335 2.097.73.905 1.81 2.446 3.177 4.67.858 1.397 1.556 2.461 2.065 3.16l1.302 1.763H38.85l-1.064-1.62c-.034-.064-.11-.158-.223-.302l-.683-.969-1.08-1.794-1.191-1.922a18.607 18.607 0 0 0-2.001-2.414 8.53 8.53 0 0 0-1.636-1.303c-.493-.268-1.319-.397-2.462-.397h-.921v10.721zM0 213.342h20.584v3.13h-8.592v21.584H8.45v-21.585H0z"/>
</svg>
